<svg xmlns="http://www.w3.org/2000/svg" xmlns:xlink="http://www.w3.org/1999/xlink" width="150" zoomAndPan="magnify" viewBox="0 0 112.5 37.5" height="50" preserveAspectRatio="xMidYMid meet" version="1.0"><defs><g/><clipPath id="b58d73b6c0"><path d="M 15 3.699219 L 41 3.699219 L 41 30.34375 L 15 30.34375 Z M 15 3.699219 " clip-rule="nonzero"/></clipPath></defs><path stroke-linecap="butt" transform="matrix(0.740132, 0, 0, 0.740132, 10.917937, 32.926498)" fill="none" stroke-linejoin="miter" d="M 0.0000424891 1.001809 L 121.83227 1.001809 " stroke="#000000" stroke-width="2" stroke-opacity="1" stroke-miterlimit="4"/><g clip-path="url(#b58d73b6c0)"><path fill="#000000" d="M 16.609375 16.683594 C 15.574219 20.578125 14.289062 25.429688 23.308594 28.160156 C 24.554688 28.488281 25.699219 29.027344 26.746094 29.777344 C 27.109375 30.0625 27.519531 30.203125 27.976562 30.203125 C 28.433594 30.203125 28.84375 30.0625 29.207031 29.777344 C 30.253906 29.027344 31.402344 28.488281 32.648438 28.160156 C 41.667969 25.429688 40.378906 20.578125 39.34375 16.683594 C 38.695312 14.230469 38.132812 12.113281 39.660156 10.484375 C 39.949219 10.179688 40.121094 9.820312 40.183594 9.402344 C 40.246094 8.988281 40.183594 8.589844 40 8.214844 L 38.507812 5.214844 C 38.261719 4.707031 37.867188 4.375 37.335938 4.207031 C 36.773438 4.035156 36.234375 4.089844 35.71875 4.375 C 35.203125 4.660156 34.65625 4.871094 34.082031 5.007812 C 33.507812 5.144531 32.925781 5.199219 32.335938 5.175781 C 31.746094 5.148438 31.171875 5.046875 30.613281 4.863281 C 30.050781 4.679688 29.523438 4.425781 29.03125 4.097656 C 28.707031 3.898438 28.355469 3.796875 27.976562 3.796875 C 27.597656 3.796875 27.246094 3.898438 26.921875 4.097656 C 26.429688 4.425781 25.902344 4.679688 25.34375 4.863281 C 24.78125 5.046875 24.207031 5.148438 23.617188 5.175781 C 23.027344 5.199219 22.445312 5.144531 21.871094 5.007812 C 21.296875 4.871094 20.753906 4.660156 20.234375 4.375 C 19.996094 4.238281 19.742188 4.15625 19.46875 4.125 C 19.195312 4.09375 18.925781 4.121094 18.664062 4.199219 C 18.402344 4.277344 18.164062 4.40625 17.953125 4.582031 C 17.742188 4.757812 17.570312 4.96875 17.445312 5.214844 L 15.953125 8.214844 C 15.769531 8.589844 15.707031 8.988281 15.769531 9.402344 C 15.832031 9.816406 16.007812 10.179688 16.292969 10.484375 C 17.820312 12.113281 17.261719 14.230469 16.609375 16.683594 Z M 17.191406 8.835938 L 18.679688 5.835938 C 18.765625 5.671875 18.894531 5.566406 19.074219 5.519531 C 19.25 5.46875 19.417969 5.496094 19.574219 5.59375 C 20.199219 5.933594 20.855469 6.1875 21.546875 6.347656 C 22.242188 6.511719 22.941406 6.578125 23.652344 6.550781 C 24.363281 6.523438 25.058594 6.402344 25.734375 6.1875 C 26.414062 5.972656 27.050781 5.667969 27.648438 5.28125 C 27.867188 5.140625 28.085938 5.140625 28.304688 5.28125 C 28.902344 5.667969 29.542969 5.972656 30.21875 6.1875 C 30.898438 6.402344 31.589844 6.523438 32.300781 6.550781 C 33.011719 6.578125 33.714844 6.511719 34.40625 6.347656 C 35.097656 6.1875 35.757812 5.933594 36.382812 5.59375 C 36.554688 5.496094 36.734375 5.476562 36.921875 5.535156 C 37.082031 5.582031 37.199219 5.683594 37.273438 5.835938 L 38.765625 8.835938 C 38.890625 9.089844 38.851562 9.324219 38.65625 9.53125 C 36.597656 11.722656 37.316406 14.425781 38.011719 17.042969 C 39.070312 21.035156 39.988281 24.488281 32.25 26.832031 C 30.839844 27.207031 29.539062 27.828125 28.355469 28.6875 C 28.242188 28.769531 28.117188 28.8125 27.976562 28.8125 C 27.835938 28.8125 27.710938 28.769531 27.597656 28.6875 C 26.414062 27.828125 25.117188 27.207031 23.703125 26.832031 C 15.964844 24.488281 16.882812 21.035156 17.941406 17.042969 C 18.636719 14.425781 19.355469 11.722656 17.296875 9.53125 C 17.101562 9.324219 17.066406 9.089844 17.191406 8.835938 Z M 17.191406 8.835938 " fill-opacity="1" fill-rule="nonzero"/></g><g fill="#000000" fill-opacity="1"><g transform="translate(47.430982, 12.749294)"><g><path d="M 0.203125 -7.546875 L 0.203125 -7.78125 L 4.3125 -7.78125 C 4.695312 -7.78125 5.054688 -7.710938 5.390625 -7.578125 C 5.734375 -7.453125 6.007812 -7.242188 6.21875 -6.953125 C 6.425781 -6.660156 6.53125 -6.273438 6.53125 -5.796875 C 6.53125 -5.253906 6.394531 -4.832031 6.125 -4.53125 C 5.851562 -4.226562 5.519531 -4.023438 5.125 -3.921875 C 5.4375 -3.878906 5.722656 -3.78125 5.984375 -3.625 C 6.253906 -3.476562 6.46875 -3.269531 6.625 -3 C 6.78125 -2.726562 6.859375 -2.390625 6.859375 -1.984375 C 6.859375 -1.492188 6.753906 -1.101562 6.546875 -0.8125 C 6.335938 -0.53125 6.0625 -0.320312 5.71875 -0.1875 C 5.382812 -0.0625 5.023438 0 4.640625 0 L 0.203125 0 L 0.203125 -0.21875 L 0.90625 -0.28125 L 0.90625 -7.5 Z M 2.109375 -7.546875 L 2.109375 -4 L 3.625 -4 C 3.914062 -4 4.191406 -4.050781 4.453125 -4.15625 C 4.710938 -4.257812 4.921875 -4.441406 5.078125 -4.703125 C 5.242188 -4.960938 5.328125 -5.320312 5.328125 -5.78125 C 5.328125 -6.238281 5.25 -6.597656 5.09375 -6.859375 C 4.9375 -7.117188 4.726562 -7.296875 4.46875 -7.390625 C 4.21875 -7.492188 3.9375 -7.546875 3.625 -7.546875 Z M 2.109375 -3.78125 L 2.109375 -0.21875 L 3.9375 -0.21875 C 4.226562 -0.21875 4.503906 -0.269531 4.765625 -0.375 C 5.035156 -0.476562 5.253906 -0.660156 5.421875 -0.921875 C 5.585938 -1.179688 5.671875 -1.539062 5.671875 -2 C 5.671875 -2.457031 5.585938 -2.816406 5.421875 -3.078125 C 5.265625 -3.335938 5.054688 -3.519531 4.796875 -3.625 C 4.535156 -3.726562 4.25 -3.78125 3.9375 -3.78125 Z M 2.109375 -3.78125 "/></g></g></g><g fill="#000000" fill-opacity="1"><g transform="translate(55.592876, 12.749294)"><g><path d="M 4.171875 -7.890625 C 4.929688 -7.890625 5.585938 -7.726562 6.140625 -7.40625 C 6.691406 -7.082031 7.113281 -6.617188 7.40625 -6.015625 C 7.707031 -5.421875 7.859375 -4.710938 7.859375 -3.890625 C 7.859375 -3.054688 7.707031 -2.34375 7.40625 -1.75 C 7.113281 -1.15625 6.691406 -0.695312 6.140625 -0.375 C 5.585938 -0.0507812 4.929688 0.109375 4.171875 0.109375 C 3.421875 0.109375 2.769531 -0.0507812 2.21875 -0.375 C 1.675781 -0.695312 1.253906 -1.15625 0.953125 -1.75 C 0.660156 -2.34375 0.515625 -3.054688 0.515625 -3.890625 C 0.515625 -4.710938 0.660156 -5.421875 0.953125 -6.015625 C 1.253906 -6.617188 1.675781 -7.082031 2.21875 -7.40625 C 2.769531 -7.726562 3.421875 -7.890625 4.171875 -7.890625 Z M 4.171875 -7.671875 C 3.441406 -7.671875 2.878906 -7.375 2.484375 -6.78125 C 2.085938 -6.1875 1.890625 -5.222656 1.890625 -3.890625 C 1.890625 -2.566406 2.085938 -1.601562 2.484375 -1 C 2.878906 -0.40625 3.441406 -0.109375 4.171875 -0.109375 C 4.910156 -0.109375 5.476562 -0.40625 5.875 -1 C 6.28125 -1.59375 6.484375 -2.554688 6.484375 -3.890625 C 6.484375 -5.222656 6.28125 -6.1875 5.875 -6.78125 C 5.476562 -7.375 4.910156 -7.671875 4.171875 -7.671875 Z M 4.171875 -7.671875 "/></g></g></g><g fill="#000000" fill-opacity="1"><g transform="translate(64.776368, 12.749294)"><g><path d="M 0.203125 -7.546875 L 0.203125 -7.78125 L 2.3125 -7.78125 L 6.75 -0.3125 L 6.75 -7.53125 L 6.046875 -7.546875 L 6.046875 -7.78125 L 7.6875 -7.78125 L 7.6875 -7.546875 L 6.984375 -7.53125 L 6.984375 -0.25 L 7.6875 -0.21875 L 7.6875 0 L 5.578125 0 L 1.140625 -7.46875 L 1.140625 -0.25 L 1.84375 -0.21875 L 1.84375 0 L 0.203125 0 L 0.203125 -0.21875 L 0.90625 -0.25 L 0.90625 -7.53125 Z M 0.203125 -7.546875 "/></g></g></g><g fill="#000000" fill-opacity="1"><g transform="translate(73.471266, 12.749294)"><g><path d="M 0.90625 -7.78125 L 6.125 -7.78125 L 6.125 -6.109375 L 5.90625 -6.109375 L 5.25 -7.546875 L 2.109375 -7.546875 L 2.109375 -4 L 4.5625 -4 L 4.640625 -4.84375 L 4.859375 -4.84375 L 4.859375 -2.953125 L 4.640625 -2.953125 L 4.5625 -3.78125 L 2.109375 -3.78125 L 2.109375 -0.21875 L 5.25 -0.21875 L 5.90625 -1.671875 L 6.125 -1.671875 L 6.125 0 L 0.203125 0 L 0.203125 -0.21875 L 0.90625 -0.28125 L 0.90625 -7.5 L 0.203125 -7.546875 L 0.203125 -7.78125 Z M 0.90625 -7.78125 "/></g></g></g><g fill="#000000" fill-opacity="1"><g transform="translate(80.900275, 12.749294)"><g><path d="M 5.90625 -1.796875 L 6.125 -1.796875 L 6.125 0 L 0.203125 0 L 0.203125 -0.21875 L 0.90625 -0.28125 L 0.90625 -7.5 L 0.203125 -7.546875 L 0.203125 -7.78125 L 2.828125 -7.78125 L 2.828125 -7.546875 L 2.109375 -7.5 L 2.109375 -0.21875 L 5.25 -0.21875 Z M 5.90625 -1.796875 "/></g></g></g><g fill="#000000" fill-opacity="1"><g transform="translate(87.996154, 12.749294)"><g><path d="M 3.5625 -7.78125 L 4.625 -7.78125 L 7 -0.28125 L 7.75 -0.21875 L 7.75 0 L 5.046875 0 L 5.046875 -0.21875 L 5.703125 -0.28125 L 4.875 -2.9375 L 2.015625 -2.9375 L 1.171875 -0.25 L 1.859375 -0.21875 L 1.859375 0 L 0.203125 0 L 0.203125 -0.21875 L 0.921875 -0.25 L 3.3125 -7.78125 Z M 3.46875 -7.484375 L 3.421875 -7.375 L 2.09375 -3.15625 L 4.8125 -3.15625 L 3.484375 -7.375 Z M 3.46875 -7.484375 "/></g></g></g><g fill="#000000" fill-opacity="1"><g transform="translate(47.430982, 26.557184)"><g><path d="M 5.90625 -7.546875 L 4.515625 -7.546875 C 4.015625 -7.546875 3.550781 -7.429688 3.125 -7.203125 C 2.695312 -6.972656 2.351562 -6.585938 2.09375 -6.046875 C 1.832031 -5.515625 1.703125 -4.796875 1.703125 -3.890625 C 1.703125 -3.203125 1.785156 -2.625 1.953125 -2.15625 C 2.128906 -1.6875 2.363281 -1.304688 2.65625 -1.015625 C 2.945312 -0.734375 3.273438 -0.53125 3.640625 -0.40625 C 4.015625 -0.28125 4.398438 -0.21875 4.796875 -0.21875 L 6.796875 -0.21875 L 6.796875 0 L 3.84375 0 C 3.414062 0 3 -0.0703125 2.59375 -0.21875 C 2.195312 -0.375 1.84375 -0.609375 1.53125 -0.921875 C 1.21875 -1.242188 0.96875 -1.648438 0.78125 -2.140625 C 0.601562 -2.628906 0.515625 -3.210938 0.515625 -3.890625 C 0.515625 -4.566406 0.601562 -5.148438 0.78125 -5.640625 C 0.96875 -6.128906 1.21875 -6.53125 1.53125 -6.84375 C 1.84375 -7.164062 2.195312 -7.398438 2.59375 -7.546875 C 3 -7.703125 3.414062 -7.78125 3.84375 -7.78125 L 6.796875 -7.78125 L 6.796875 -5.859375 L 6.578125 -5.859375 Z M 5.90625 -7.546875 "/></g></g></g><g fill="#000000" fill-opacity="1"><g transform="translate(55.526245, 26.557184)"><g><path d="M 0.203125 -7.546875 L 0.203125 -7.78125 L 2.109375 -7.78125 L 2.109375 -2.0625 C 2.109375 -1.726562 2.191406 -1.421875 2.359375 -1.140625 C 2.523438 -0.859375 2.742188 -0.632812 3.015625 -0.46875 C 3.296875 -0.300781 3.609375 -0.21875 3.953125 -0.21875 L 6.015625 -0.21875 L 6.015625 -7.5 L 5.3125 -7.546875 L 5.3125 -7.78125 L 7.9375 -7.78125 L 7.9375 -7.546875 L 7.21875 -7.5 L 7.21875 -0.28125 L 7.9375 -0.21875 L 7.9375 0 L 3.140625 0 C 2.722656 0 2.347656 -0.0976562 2.015625 -0.296875 C 1.679688 -0.492188 1.410156 -0.757812 1.203125 -1.09375 C 1.003906 -1.4375 0.90625 -1.8125 0.90625 -2.21875 L 0.90625 -7.5 Z M 0.203125 -7.546875 "/></g></g></g><g fill="#000000" fill-opacity="1"><g transform="translate(64.465439, 26.557184)"><g><path d="M 0.203125 -7.546875 L 0.203125 -7.78125 L 4.125 -7.78125 C 4.90625 -7.78125 5.523438 -7.585938 5.984375 -7.203125 C 6.453125 -6.816406 6.6875 -6.203125 6.6875 -5.359375 C 6.6875 -4.734375 6.554688 -4.234375 6.296875 -3.859375 C 6.035156 -3.484375 5.671875 -3.222656 5.203125 -3.078125 L 6.71875 -0.28125 L 7.46875 -0.21875 L 7.46875 0 L 4.703125 0 L 4.703125 -0.21875 L 5.390625 -0.28125 L 3.96875 -2.9375 L 2.109375 -2.9375 L 2.109375 -0.28125 L 2.828125 -0.21875 L 2.828125 0 L 0.203125 0 L 0.203125 -0.21875 L 0.90625 -0.28125 L 0.90625 -7.5 Z M 2.109375 -7.546875 L 2.109375 -3.15625 L 3.4375 -3.15625 C 3.832031 -3.15625 4.179688 -3.222656 4.484375 -3.359375 C 4.785156 -3.492188 5.023438 -3.722656 5.203125 -4.046875 C 5.378906 -4.367188 5.46875 -4.804688 5.46875 -5.359375 C 5.46875 -5.898438 5.378906 -6.332031 5.203125 -6.65625 C 5.035156 -6.976562 4.800781 -7.207031 4.5 -7.34375 C 4.195312 -7.476562 3.84375 -7.546875 3.4375 -7.546875 Z M 2.109375 -7.546875 "/></g></g></g><g fill="#000000" fill-opacity="1"><g transform="translate(72.916041, 26.557184)"><g><path d="M 4.859375 -7.546875 L 3.25 -7.546875 C 2.789062 -7.546875 2.414062 -7.425781 2.125 -7.1875 C 1.84375 -6.945312 1.703125 -6.601562 1.703125 -6.15625 C 1.703125 -5.726562 1.8125 -5.390625 2.03125 -5.140625 C 2.25 -4.890625 2.585938 -4.707031 3.046875 -4.59375 L 4.59375 -4.21875 C 5.707031 -3.957031 6.265625 -3.234375 6.265625 -2.046875 C 6.265625 -1.441406 6.078125 -0.945312 5.703125 -0.5625 C 5.328125 -0.1875 4.8125 0 4.15625 0 L 0.796875 0 L 0.796875 -1.796875 L 1.015625 -1.796875 L 1.671875 -0.21875 L 3.5625 -0.21875 C 4.019531 -0.21875 4.382812 -0.335938 4.65625 -0.578125 C 4.925781 -0.828125 5.0625 -1.175781 5.0625 -1.625 C 5.0625 -2.0625 4.953125 -2.398438 4.734375 -2.640625 C 4.523438 -2.890625 4.191406 -3.066406 3.734375 -3.171875 L 2.203125 -3.5625 C 1.078125 -3.820312 0.515625 -4.546875 0.515625 -5.734375 C 0.515625 -6.128906 0.601562 -6.476562 0.78125 -6.78125 C 0.957031 -7.09375 1.207031 -7.335938 1.53125 -7.515625 C 1.851562 -7.691406 2.234375 -7.78125 2.671875 -7.78125 L 5.703125 -7.78125 L 5.703125 -6 L 5.484375 -6 Z M 4.859375 -7.546875 "/></g></g></g><g fill="#000000" fill-opacity="1"><g transform="translate(80.389465, 26.557184)"><g><path d="M 4.171875 -7.890625 C 4.929688 -7.890625 5.585938 -7.726562 6.140625 -7.40625 C 6.691406 -7.082031 7.113281 -6.617188 7.40625 -6.015625 C 7.707031 -5.421875 7.859375 -4.710938 7.859375 -3.890625 C 7.859375 -3.054688 7.707031 -2.34375 7.40625 -1.75 C 7.113281 -1.15625 6.691406 -0.695312 6.140625 -0.375 C 5.585938 -0.0507812 4.929688 0.109375 4.171875 0.109375 C 3.421875 0.109375 2.769531 -0.0507812 2.21875 -0.375 C 1.675781 -0.695312 1.253906 -1.15625 0.953125 -1.75 C 0.660156 -2.34375 0.515625 -3.054688 0.515625 -3.890625 C 0.515625 -4.710938 0.660156 -5.421875 0.953125 -6.015625 C 1.253906 -6.617188 1.675781 -7.082031 2.21875 -7.40625 C 2.769531 -7.726562 3.421875 -7.890625 4.171875 -7.890625 Z M 4.171875 -7.671875 C 3.441406 -7.671875 2.878906 -7.375 2.484375 -6.78125 C 2.085938 -6.1875 1.890625 -5.222656 1.890625 -3.890625 C 1.890625 -2.566406 2.085938 -1.601562 2.484375 -1 C 2.878906 -0.40625 3.441406 -0.109375 4.171875 -0.109375 C 4.910156 -0.109375 5.476562 -0.40625 5.875 -1 C 6.28125 -1.59375 6.484375 -2.554688 6.484375 -3.890625 C 6.484375 -5.222656 6.28125 -6.1875 5.875 -6.78125 C 5.476562 -7.375 4.910156 -7.671875 4.171875 -7.671875 Z M 4.171875 -7.671875 "/></g></g></g><g fill="#000000" fill-opacity="1"><g transform="translate(89.572957, 26.557184)"><g><path d="M 4.859375 -7.546875 L 3.25 -7.546875 C 2.789062 -7.546875 2.414062 -7.425781 2.125 -7.1875 C 1.84375 -6.945312 1.703125 -6.601562 1.703125 -6.15625 C 1.703125 -5.726562 1.8125 -5.390625 2.03125 -5.140625 C 2.25 -4.890625 2.585938 -4.707031 3.046875 -4.59375 L 4.59375 -4.21875 C 5.707031 -3.957031 6.265625 -3.234375 6.265625 -2.046875 C 6.265625 -1.441406 6.078125 -0.945312 5.703125 -0.5625 C 5.328125 -0.1875 4.8125 0 4.15625 0 L 0.796875 0 L 0.796875 -1.796875 L 1.015625 -1.796875 L 1.671875 -0.21875 L 3.5625 -0.21875 C 4.019531 -0.21875 4.382812 -0.335938 4.65625 -0.578125 C 4.925781 -0.828125 5.0625 -1.175781 5.0625 -1.625 C 5.0625 -2.0625 4.953125 -2.398438 4.734375 -2.640625 C 4.523438 -2.890625 4.191406 -3.066406 3.734375 -3.171875 L 2.203125 -3.5625 C 1.078125 -3.820312 0.515625 -4.546875 0.515625 -5.734375 C 0.515625 -6.128906 0.601562 -6.476562 0.78125 -6.78125 C 0.957031 -7.09375 1.207031 -7.335938 1.53125 -7.515625 C 1.851562 -7.691406 2.234375 -7.78125 2.671875 -7.78125 L 5.703125 -7.78125 L 5.703125 -6 L 5.484375 -6 Z M 4.859375 -7.546875 "/></g></g></g><g fill="#000000" fill-opacity="1"><g transform="translate(22.398026, 23.389873)"><g><path d="M 0.984375 -13.453125 L 5.625 -13.453125 C 7.03125 -13.453125 8.101562 -13.160156 8.84375 -12.578125 C 9.59375 -12.035156 9.96875 -11.210938 9.96875 -10.109375 C 9.96875 -9.472656 9.90625 -8.945312 9.78125 -8.53125 C 9.738281 -8.320312 9.660156 -8.109375 9.546875 -7.890625 C 9.429688 -7.671875 9.28125 -7.453125 9.09375 -7.234375 C 9.351562 -7.003906 9.570312 -6.769531 9.75 -6.53125 C 9.925781 -6.289062 10.066406 -6.035156 10.171875 -5.765625 C 10.398438 -5.253906 10.515625 -4.582031 10.515625 -3.75 C 10.515625 -2.550781 10.109375 -1.617188 9.296875 -0.953125 C 8.484375 -0.304688 7.316406 0.015625 5.796875 0.015625 L 0.984375 0.015625 L 0.984375 -4.640625 L 2.796875 -4.640625 L 2.796875 -1.5 L 5.734375 -1.5 C 6.703125 -1.5 7.421875 -1.695312 7.890625 -2.09375 C 8.359375 -2.507812 8.59375 -3.128906 8.59375 -3.953125 C 8.59375 -4.804688 8.359375 -5.421875 7.890625 -5.796875 C 7.867188 -5.835938 7.835938 -5.867188 7.796875 -5.890625 C 7.753906 -5.921875 7.71875 -5.941406 7.6875 -5.953125 C 7.644531 -5.984375 7.609375 -6.003906 7.578125 -6.015625 C 7.546875 -6.023438 7.5 -6.035156 7.4375 -6.046875 C 7.34375 -6.085938 7.265625 -6.109375 7.203125 -6.109375 C 7.179688 -6.117188 7.144531 -6.128906 7.09375 -6.140625 C 7.050781 -6.148438 6.992188 -6.15625 6.921875 -6.15625 C 6.847656 -6.164062 6.785156 -6.171875 6.734375 -6.171875 C 6.691406 -6.171875 6.648438 -6.171875 6.609375 -6.171875 C 6.585938 -6.179688 6.546875 -6.179688 6.484375 -6.171875 C 6.421875 -6.171875 6.34375 -6.164062 6.25 -6.15625 L 5.859375 -6.15625 C 5.679688 -6.15625 5.398438 -6.15625 5.015625 -6.15625 C 4.628906 -6.164062 4.148438 -6.171875 3.578125 -6.171875 C 2.441406 -6.179688 1.566406 -6.179688 0.953125 -6.171875 Z M 2.796875 -11.953125 L 2.796875 -7.890625 L 5.5 -7.890625 C 6.375 -7.890625 7.03125 -8.054688 7.46875 -8.390625 C 7.914062 -8.722656 8.140625 -9.234375 8.140625 -9.921875 C 8.140625 -10.609375 7.914062 -11.117188 7.46875 -11.453125 C 7.0625 -11.785156 6.40625 -11.953125 5.5 -11.953125 Z M 2.796875 -11.953125 "/></g></g></g></svg>